<?xml version="1.0" encoding="UTF-8"?>
<svg width="24px" height="24px" viewBox="0 0 24 24" version="1.1" xmlns="http://www.w3.org/2000/svg" xmlns:xlink="http://www.w3.org/1999/xlink">
    <title>C925DA9D-5E9B-4E1A-9002-C52AC6FA1C10</title>
    <defs>
        <path d="M12,2.51471863 C12.5522847,2.51471863 13,2.96243388 13,3.51471863 L13,3.51471863 L12.9997186,10.9997186 L20.4852814,11 C20.9981172,11 21.4207885,11.3860402 21.4785536,11.8833789 L21.4852814,12 C21.4852814,12.5522847 21.0375661,13 20.4852814,13 L20.4852814,13 L12.9997186,12.9997186 L13,20.4852814 C13,20.9981172 12.6139598,21.4207885 12.1166211,21.4785536 L12,21.4852814 C11.4477153,21.4852814 11,21.0375661 11,20.4852814 L11,20.4852814 L10.9997186,12.9997186 L3.51471863,13 C3.00188279,13 2.57921147,12.6139598 2.52144636,12.1166211 L2.51471863,12 C2.51471863,11.4477153 2.96243388,11 3.51471863,11 L3.51471863,11 L10.9997186,10.9997186 L11,3.51471863 C11,3.00188279 11.3860402,2.57921147 11.8833789,2.52144636 Z" id="path-1"></path>
    </defs>
    <g id="📸-Icon" stroke="none" stroke-width="1" fill="none" fill-rule="evenodd">
        <g id="icon/+">
            <rect id="Rectangle" x="0" y="0" width="24" height="24"></rect>
            <mask id="mask-2" fill="white">
                <use xlink:href="#path-1"></use>
            </mask>
            <use id="Combined-Shape" fill="#4D4D4D" xlink:href="#path-1"></use>
        </g>
    </g>
</svg>