<?xml version="1.0" encoding="UTF-8"?>
<svg width="24px" height="24px" viewBox="0 0 24 24" version="1.1" xmlns="http://www.w3.org/2000/svg" xmlns:xlink="http://www.w3.org/1999/xlink">
    <title>2D8176F8-AC61-4189-ACA2-FA04A00FC721</title>
    <defs>
        <path d="M4,4 L4,6 L20,6 L20,4 L4,4 Z M20.9862061,16 C21.5384908,16 21.9862061,16.4477153 21.9862061,17 L21.9862061,21 C21.9862061,21.5522847 21.5384908,22 20.9862061,22 L3,22 C2.44771525,22 2,21.5522847 2,21 L2,17 C2,16.4477153 2.44771525,16 3,16 L20.9862061,16 Z M20,18 L4,18 L4,20 L20,20 L20,18 Z M20.9862061,9 C21.5384908,9 21.9862061,9.44771525 21.9862061,10 L21.9862061,14 C21.9862061,14.5522847 21.5384908,15 20.9862061,15 L3,15 C2.44771525,15 2,14.5522847 2,14 L2,10 C2,9.44771525 2.44771525,9 3,9 L20.9862061,9 Z M20,11 L4,11 L4,13 L20,13 L20,11 Z M20.9874268,2 C21.5397115,2 21.9874268,2.44771525 21.9874268,3 L21.9874268,7 C21.9874268,7.55228475 21.5397115,8 20.9874268,8 L3,8 C2.44771525,8 2,7.55228475 2,7 L2,3 C2,2.44771525 2.44771525,2 3,2 L20.9874268,2 Z" id="path-1"></path>
    </defs>
    <g id="📸-Icon" stroke="none" stroke-width="1" fill="none" fill-rule="evenodd">
        <g id="icon/list">
            <rect id="Rectangle" x="0" y="0" width="24" height="24"></rect>
            <mask id="mask-2" fill="white">
                <use xlink:href="#path-1"></use>
            </mask>
            <use id="Combined-Shape" fill="#4D4D4D" xlink:href="#path-1"></use>
        </g>
    </g>
</svg>